<svg xmlns="http://www.w3.org/2000/svg" xmlns:xlink="http://www.w3.org/1999/xlink" preserveAspectRatio="xMidYMid" width="3082" height="1100" viewBox="0 0 3082 1100">
  <defs>
    <style>
      .cls-1 {
        fill: #fff;
        fill-rule: evenodd;
      }
    </style>
  </defs>
  <path d="M497.753,455.641 C518.541,440.162 551.595,450.817 571.580,479.440 C591.566,508.063 590.915,543.815 570.127,559.294 C549.339,574.773 516.286,564.118 496.301,535.495 C476.315,506.872 476.965,471.120 497.753,455.641 Z" class="cls-1"/>
  <path d="M1155.988,100.000 C1005.001,594.063 618.618,966.454 299.999,414.627 C737.505,798.079 580.223,438.665 523.508,198.321 C814.781,822.659 1063.557,234.343 1155.988,100.000 Z" class="cls-1"/>
  <path d="M980.035,567.025 C806.460,793.163 560.363,782.102 409.376,660.430 C427.209,881.652 533.019,1007.671 732.749,999.637 C954.007,979.404 1033.534,739.087 980.035,567.025 Z" class="cls-1"/>
  <path d="M2733.058,700.002 L2584.840,479.551 L2584.054,479.551 L2584.054,700.002 L2538.448,700.002 L2538.448,399.633 L2634.770,399.633 L2736.596,551.362 L2737.776,551.362 L2737.776,417.393 C2737.776,410.962 2740.000,405.618 2744.460,401.371 C2748.913,397.124 2754.417,395.000 2760.972,395.000 C2767.262,395.000 2772.502,397.190 2776.698,401.564 C2780.887,405.943 2782.988,411.216 2782.988,417.393 L2782.988,700.002 L2733.058,700.002 ZM2492.847,659.078 C2498.609,659.078 2503.523,661.074 2507.590,665.062 C2511.651,669.055 2513.813,673.881 2514.077,679.540 C2514.335,685.204 2512.308,690.030 2507.983,694.018 C2503.658,698.011 2498.609,700.002 2492.847,700.002 L2317.501,700.002 L2317.108,427.431 C2317.108,419.969 2319.921,413.472 2325.561,407.934 C2331.194,402.402 2337.810,399.633 2345.415,399.633 L2490.881,399.633 C2496.643,399.633 2501.625,401.630 2505.821,405.618 C2510.010,409.611 2512.112,414.437 2512.112,420.096 C2512.112,425.760 2510.078,430.586 2506.017,434.573 C2501.951,438.567 2497.036,440.558 2491.274,440.558 L2403.208,440.558 L2403.208,525.495 L2506.214,525.495 L2506.214,566.033 L2403.602,566.033 L2403.602,659.078 L2492.847,659.078 ZM2269.932,700.002 L2024.605,700.002 L2175.969,440.558 L2034.827,440.558 L2034.827,399.633 L2249.095,399.633 C2256.694,399.633 2263.181,402.276 2268.556,407.548 C2273.925,412.826 2276.615,419.197 2276.615,426.659 C2276.615,429.747 2275.694,433.608 2273.863,438.241 L2146.482,659.078 L2269.932,659.078 C2275.694,659.078 2280.608,661.074 2284.675,665.062 C2288.736,669.055 2290.769,673.881 2290.769,679.540 C2290.769,685.204 2288.736,690.030 2284.675,694.018 C2280.608,698.011 2275.694,700.002 2269.932,700.002 ZM1800.905,479.551 L1800.119,479.551 L1800.119,700.002 L1754.514,700.002 L1754.514,399.633 L1850.836,399.633 L1952.662,551.362 L1953.842,551.362 L1953.842,417.393 C1953.842,410.962 1956.065,405.618 1960.525,401.371 C1964.979,397.124 1970.483,395.000 1977.038,395.000 C1983.328,395.000 1988.568,397.190 1992.763,401.564 C1996.953,405.943 1999.054,411.216 1999.054,417.393 L1999.054,700.002 L1949.124,700.002 L1800.905,479.551 ZM1708.912,659.078 C1714.674,659.078 1719.589,661.074 1723.656,665.062 C1727.716,669.055 1729.878,673.881 1730.143,679.540 C1730.400,685.204 1728.373,690.030 1724.049,694.018 C1719.724,698.011 1714.674,700.002 1708.912,700.002 L1533.567,700.002 L1533.173,427.431 C1533.173,419.969 1535.987,413.472 1541.626,407.934 C1547.259,402.402 1553.875,399.633 1561.480,399.633 L1706.947,399.633 C1712.709,399.633 1717.691,401.630 1721.886,405.618 C1726.076,409.611 1728.177,414.437 1728.177,420.096 C1728.177,425.760 1726.143,430.586 1722.083,434.573 C1718.016,438.567 1713.102,440.558 1707.340,440.558 L1619.274,440.558 L1619.274,525.495 L1722.280,525.495 L1722.280,566.033 L1619.667,566.033 L1619.667,659.078 L1708.912,659.078 ZM1425.057,700.002 L1338.956,700.002 L1338.956,440.558 L1276.838,440.558 C1271.070,440.558 1266.156,438.567 1262.095,434.573 C1258.028,430.586 1256.001,425.760 1256.001,420.096 C1256.001,414.437 1258.028,409.611 1262.095,405.618 C1266.156,401.630 1271.070,399.633 1276.838,399.633 L1507.618,399.633 L1507.618,440.558 L1425.057,440.558 L1425.057,700.002 Z" class="cls-1"/>
</svg>
