<svg xmlns="http://www.w3.org/2000/svg" viewBox="0 0 115.8 101"><style>.st0{fill:#FECC00;} .st1{fill:#D50029;} .st2{fill:#0280C5;} .st3{fill:#253B80;} .st4{fill:#179BD7;} .st5{fill:#222D65;} .st6{fill:none;} .st7{fill:#FF5F00;} .st8{fill:#EB001B;} .st9{fill:#F79E1B;} .st10{fill:#CD0067;} .st11{fill:#FFFFFF;} .st12{fill-rule:evenodd;clip-rule:evenodd;fill:#FFFFFF;} .st13{fill-rule:evenodd;clip-rule:evenodd;fill:#B9EF00;} .st14{fill-rule:evenodd;clip-rule:evenodd;fill:#FF3949;} .st15{fill:none;stroke:#2C2E2F;stroke-width:2.5396;stroke-miterlimit:2.6131;} .st16{fill-rule:evenodd;clip-rule:evenodd;fill:#231F20;} .st17{fill:url(#SVGID_1_);} .st18{fill:#004686;} .st19{fill:#EF9B11;} .st20{fill-rule:evenodd;clip-rule:evenodd;fill:url(#SVGID_2_);} .st21{fill-rule:evenodd;clip-rule:evenodd;fill:url(#SVGID_3_);} .st22{fill:none;stroke:#2C2E2F;stroke-width:2.8148;stroke-miterlimit:2.6131;} .st23{fill:#676767;}</style><path d="M30.6 26.6L57.3 7.9l27.3 19.7-27.1 17.3-26.9-18.3z" class="st12"/><path d="M57.6 57.2l-.1-10.5 27.6-17.5v28.1l-27.5-.1z" class="st13"/><path d="M30.8 57V29.6l26.4 16.5v11.2L30.8 57z" class="st14"/><path d="M30.3 20.9l27-19.1 27.3 19.1M30 27.3L57.3 7.9l27.9 19.2M30.5 57.6v-29l27 17.5 27.3-17.5v29.1H30.5v-.1zm26.8 0V45.8" class="st15"/><path d="M15.5 70.7h-2.7v5.7c0 1.4.6 1.7 1.4 1.7.5 0 1.1-.2 1.4-.5l.2 1.2c-.5.3-1.2.5-1.8.5-1.1 0-2.3-.5-2.3-2.6v-6h-2v-1.2h2v-2.6h1.2v2.6h2.7v1.2h-.1zm1.9-7.1h1.4V71c.6-1.1 2-1.7 3.2-1.7 2.3 0 3.5 1.2 3.5 3.7v6h-1.4v-5.2c0-2.2-.6-3.4-2.4-3.4-.3 0-2.9.3-2.9 3.7V79h-1.4V63.6zM35.3 79v-1.5h-.2c-.5 1.1-1.8 1.8-3.1 1.8-2.4 0-3.7-1.4-3.7-3.8v-6h1.4v5.2c0 2.2.6 3.4 2.6 3.4.3 0 2.9-.3 2.9-3.7v-4.9h1.2v7.4c0 .6.2 1.4.2 2.2h-1.3V79zm5.4-12.1c-.5 0-.9-.5-.9-1.1 0-.5.5-.9.9-.9.5 0 1.1.5 1.1.9 0 .6-.7 1.1-1.1 1.1zm-.6 2.6h1.4V79h-1.4v-9.5zm9.4 2.3c-.3-.8-1.1-1.4-2-1.4-.9 0-2 .5-2 1.5 0 .9.6 1.2 1.8 1.5l1.4.3c1.4.3 2.3 1.2 2.3 2.6 0 2-1.8 2.9-3.7 2.9-1.4 0-2.7-.6-3.7-1.8l1.2-.9c.6.9 1.4 1.5 2.4 1.5 1.1 0 2.3-.6 2.3-1.7 0-.9-.9-1.2-1.8-1.5l-1.2-.3c-.8-.2-2.4-.6-2.4-2.5 0-2 1.7-2.8 3.5-2.8 1.2 0 2.4.5 3.1 1.7l-1.2.9zm4.1-2.3l2.2 7.7 2.6-7.7h1.3l2.5 7.7 2.3-7.7H66L63 79h-1.4L59 71.2 56.5 79H55l-3-9.5h1.6zm15.1-2.6c-.6 0-1.1-.5-1.1-1.1 0-.5.5-.9 1.1-.9.5 0 .9.5.9.9.1.6-.4 1.1-.9 1.1zm-.7 2.6h1.4V79H68v-9.5zm5.8 0c.2.5.2 1.1.2 1.5.6-1.1 1.8-1.7 3.2-1.7 2.3 0 3.5 1.2 3.5 3.7v6h-1.4v-5.2c0-2.2-.6-3.4-2.6-3.4-.2 0-2.7.3-2.7 3.7V79h-1.4v-7.4c0-.6 0-1.4-.2-2.2h1.4v.1zm11.3 4.3l4.4-4.3h2l-4.6 4.3 5.2 5.2h-2.2l-4.8-5.1V79h-1.4V63.6h1.4v10.2zm9.3.7c.2 2 1.7 3.5 3.5 3.5 1.4 0 2.4-.9 3.1-1.7l.9.8c-1.1 1.5-2.4 2.2-4 2.2-2.9 0-4.9-2.2-4.9-5.1 0-2.9 2-4.9 4.7-4.9 2.9 0 4.6 2.2 4.6 4.6v.6h-7.9zm6.4-1c0-1.7-1.1-3.1-3.1-3.1-1.7 0-3.4 1.5-3.4 3.1h6.5zm4.1-9.9h1.4V79h-1.4V63.6zM18 86.7l2.1 7.7h.1l2.5-7.7h1.4l2.6 7.7 2.1-7.7h1.5l-2.9 9.4h-1.5l-2.4-7.7h-.2l-2.4 7.7h-1.6l-2.9-9.4H18zm20.1 3.7v-.3c0-1.7-.8-2.5-2.3-2.5-1.2 0-2.1.3-2.9 1.1l-.9-.9c.9-.9 2.3-1.4 4.1-1.4 1.8 0 3.4 1.1 3.4 3.4v4.3c0 .6.2 1.5.2 2h-1.2c-.2-.5-.2-.9-.2-1.5-.8 1.4-1.8 1.8-3.4 1.8-1.7 0-3.2-.9-3.2-2.8 0-3.1 3.5-3.2 5.8-3.2h.6zm-.6 1.1c-1.4 0-4.4 0-4.4 2 0 1.2 1.2 1.7 2.3 1.7 1.8 0 2.7-1.4 2.7-3.1v-.6h-.6zm11.1-1.1v-.3c0-1.7-.8-2.5-2.4-2.5-1.1 0-2 .3-2.9 1.1l-.8-.9c.9-.9 2.1-1.4 4-1.4 1.8 0 3.5 1.1 3.5 3.4v4.3c0 .6 0 1.5.2 2h-1.4c0-.5-.2-.9-.2-1.5-.8 1.4-1.8 1.8-3.4 1.8-1.7 0-3.2-.9-3.2-2.8 0-3.1 3.7-3.2 5.9-3.2h.7zm-.7 1.1c-1.2 0-4.3 0-4.3 2 0 1.2 1.1 1.7 2.1 1.7 2 0 2.9-1.4 2.9-3.1v-.6h-.7zm5.3-1.9c0-.9 0-1.5-.2-2.9h1.4v1.7c.5-1.1 1.4-2 3.1-2 .3 0 .8 0 .9.2l-.2 1.2h-.8c-2.1 0-2.9 1.7-2.9 3.1v5.2h-1.4v-6.5h.1zm6.5-8.8H61v7.4h.2c.8-1.2 2.4-1.8 3.7-1.8 2.9 0 5 2.2 5 5.1 0 2.8-2.1 4.9-5 4.9-1.2 0-2.9-.6-3.7-1.8H61v1.5h-1.2V80.8h-.1zm5.1 6.8c-2.3 0-3.8 1.7-3.8 3.8 0 2 1.5 3.7 3.8 3.7 2.1 0 3.5-1.7 3.5-3.7 0-2.1-1.4-3.8-3.5-3.8zm11.7 8.8c-2.9 0-5-2.2-5-4.9 0-2.9 2.1-5.1 5-5.1s5 2.2 5 5.1c.1 2.7-2.1 4.9-5 4.9zm0-8.8c-2.1 0-3.5 1.7-3.5 3.8 0 2 1.4 3.7 3.5 3.7s3.5-1.7 3.5-3.7c0-2.1-1.3-3.8-3.5-3.8zm7.7 2c0-.9-.2-1.5-.2-2.9h1.4v1.7c.5-1.1 1.4-2 3-2 .3 0 .6 0 .9.2l-.2 1.2h-.8c-2.1 0-3 1.7-3 3.1v5.2h-1.2v-6.5h.1zm6.8 8.5c.8 1.1 2.1 1.7 3.7 1.7 2.6 0 3.7-1.7 3.7-3.7v-1.7h-.2c-.8 1.2-2.1 1.7-3.5 1.7-2.7 0-4.9-2-4.9-4.8s2-4.9 4.9-4.9c1.1 0 2.4.3 3.5 1.8h.2v-1.5h1.2v9.4c0 2-.8 4.9-5 4.9-1.8 0-3.4-.6-4.4-1.8l.8-1.1zm3.8-3.3c1.8 0 3.5-1.4 3.5-3.5 0-2-1.4-3.7-3.5-3.7-2 0-3.5 1.7-3.5 3.7s1.5 3.5 3.5 3.5z" class="st16"/></svg>