<svg xmlns="http://www.w3.org/2000/svg" xmlns:xlink="http://www.w3.org/1999/xlink" preserveAspectRatio="xMidYMid" width="350" height="75" viewBox="0 0 350 75">
  <defs>
    <style>
      .cls-1 {
        fill: #abdbea;
        fill-rule: evenodd;
      }
    </style>
  </defs>
  <path d="M28.779,33.806 C29.702,33.118 31.169,33.592 32.056,34.864 C32.944,36.136 32.915,37.725 31.992,38.413 C31.069,39.101 29.602,38.627 28.714,37.355 C27.827,36.083 27.856,34.494 28.779,33.806 Z" class="cls-1"/>
  <path d="M58.000,18.000 C51.297,39.958 34.144,56.509 20.000,31.983 C39.422,49.026 32.440,33.052 29.922,22.370 C42.853,50.118 53.897,23.971 58.000,18.000 Z" class="cls-1"/>
  <path d="M50.189,38.757 C42.483,48.807 31.558,48.316 24.856,42.908 C25.647,52.740 30.344,58.341 39.211,57.984 C49.033,57.085 52.564,46.404 50.189,38.757 Z" class="cls-1"/>
  <path d="M129.715,47.995 L122.920,37.880 L122.884,37.880 L122.884,47.995 L120.793,47.995 L120.793,34.213 L125.209,34.213 L129.877,41.175 L129.931,41.175 L129.931,35.028 C129.931,34.733 130.033,34.487 130.238,34.293 C130.442,34.098 130.694,34.000 130.995,34.000 C131.283,34.000 131.523,34.101 131.716,34.301 C131.908,34.502 132.004,34.744 132.004,35.028 L132.004,47.995 L129.715,47.995 ZM118.702,46.117 C118.966,46.117 119.192,46.209 119.378,46.392 C119.564,46.575 119.663,46.796 119.675,47.056 C119.687,47.316 119.594,47.537 119.396,47.720 C119.198,47.903 118.966,47.995 118.702,47.995 L110.663,47.995 L110.645,35.488 C110.645,35.146 110.774,34.848 111.033,34.594 C111.291,34.340 111.594,34.213 111.943,34.213 L118.612,34.213 C118.876,34.213 119.105,34.304 119.297,34.487 C119.489,34.671 119.585,34.892 119.585,35.152 C119.585,35.412 119.492,35.633 119.306,35.816 C119.119,35.999 118.894,36.091 118.630,36.091 L114.592,36.091 L114.592,39.988 L119.315,39.988 L119.315,41.848 L114.610,41.848 L114.610,46.117 L118.702,46.117 ZM108.482,47.995 L97.235,47.995 L104.174,36.091 L97.703,36.091 L97.703,34.213 L107.527,34.213 C107.875,34.213 108.173,34.334 108.419,34.576 C108.665,34.818 108.789,35.110 108.789,35.453 C108.789,35.595 108.746,35.772 108.662,35.984 L102.822,46.117 L108.482,46.117 C108.746,46.117 108.972,46.209 109.158,46.392 C109.344,46.575 109.437,46.796 109.437,47.056 C109.437,47.316 109.344,47.537 109.158,47.720 C108.972,47.903 108.746,47.995 108.482,47.995 ZM86.979,37.880 L86.943,37.880 L86.943,47.995 L84.852,47.995 L84.852,34.213 L89.268,34.213 L93.936,41.175 L93.990,41.175 L93.990,35.028 C93.990,34.733 94.092,34.487 94.297,34.293 C94.501,34.098 94.753,34.000 95.054,34.000 C95.342,34.000 95.583,34.101 95.775,34.301 C95.967,34.502 96.063,34.744 96.063,35.028 L96.063,47.995 L93.774,47.995 L86.979,37.880 ZM82.761,46.117 C83.025,46.117 83.251,46.209 83.437,46.392 C83.623,46.575 83.722,46.796 83.735,47.056 C83.746,47.316 83.653,47.537 83.455,47.720 C83.257,47.903 83.025,47.995 82.761,47.995 L74.722,47.995 L74.704,35.488 C74.704,35.146 74.833,34.848 75.092,34.594 C75.350,34.340 75.653,34.213 76.002,34.213 L82.671,34.213 C82.935,34.213 83.164,34.304 83.356,34.487 C83.548,34.671 83.644,34.892 83.644,35.152 C83.644,35.412 83.551,35.633 83.365,35.816 C83.179,35.999 82.953,36.091 82.689,36.091 L78.652,36.091 L78.652,39.988 L83.374,39.988 L83.374,41.848 L78.670,41.848 L78.670,46.117 L82.761,46.117 ZM69.747,47.995 L65.800,47.995 L65.800,36.091 L62.952,36.091 C62.688,36.091 62.462,35.999 62.276,35.816 C62.090,35.633 61.997,35.412 61.997,35.152 C61.997,34.892 62.090,34.671 62.276,34.487 C62.462,34.304 62.688,34.213 62.952,34.213 L73.533,34.213 L73.533,36.091 L69.747,36.091 L69.747,47.995 Z" class="cls-1"/>
</svg>
