<svg xmlns="http://www.w3.org/2000/svg" xmlns:xlink="http://www.w3.org/1999/xlink" preserveAspectRatio="xMidYMid" width="350" height="75" viewBox="0 0 350 75">
  <defs>
    <style>
      .cls-1, .cls-3 {
        fill: #000;
      }

      .cls-2 {
        fill: #fff;
      }

      .cls-2, .cls-3 {
        fill-rule: evenodd;
      }
    </style>
  </defs>
  <rect x="17" y="15" width="45" height="45" class="cls-1"/>
  <path d="M28.779,32.806 C29.702,32.118 31.169,32.592 32.056,33.864 C32.944,35.136 32.915,36.725 31.992,37.413 C31.069,38.101 29.602,37.627 28.714,36.355 C27.827,35.083 27.856,33.494 28.779,32.806 Z" class="cls-2"/>
  <path d="M58.000,17.000 C51.297,38.958 34.144,55.509 20.000,30.983 C39.422,48.026 32.440,32.052 29.922,21.370 C42.853,49.118 53.897,22.971 58.000,17.000 Z" class="cls-2"/>
  <path d="M50.189,37.757 C42.483,47.807 31.558,47.316 24.856,41.908 C25.647,51.740 30.344,57.341 39.211,56.984 C49.033,56.085 52.564,45.404 50.189,37.757 Z" class="cls-2"/>
  <path d="M132.715,44.995 L125.920,34.880 L125.884,34.880 L125.884,44.995 L123.793,44.995 L123.793,31.213 L128.209,31.213 L132.877,38.175 L132.931,38.175 L132.931,32.028 C132.931,31.733 133.033,31.487 133.238,31.293 C133.442,31.098 133.694,31.000 133.995,31.000 C134.283,31.000 134.523,31.101 134.716,31.301 C134.908,31.502 135.004,31.744 135.004,32.028 L135.004,44.995 L132.715,44.995 ZM121.702,43.117 C121.966,43.117 122.192,43.209 122.378,43.392 C122.564,43.575 122.663,43.796 122.675,44.056 C122.687,44.316 122.594,44.537 122.396,44.720 C122.198,44.903 121.966,44.995 121.702,44.995 L113.663,44.995 L113.645,32.488 C113.645,32.146 113.774,31.848 114.033,31.594 C114.291,31.340 114.594,31.213 114.943,31.213 L121.612,31.213 C121.876,31.213 122.105,31.304 122.297,31.487 C122.489,31.671 122.585,31.892 122.585,32.152 C122.585,32.412 122.492,32.633 122.306,32.816 C122.119,32.999 121.894,33.091 121.630,33.091 L117.592,33.091 L117.592,36.988 L122.315,36.988 L122.315,38.848 L117.610,38.848 L117.610,43.117 L121.702,43.117 ZM111.482,44.995 L100.235,44.995 L107.174,33.091 L100.703,33.091 L100.703,31.213 L110.527,31.213 C110.875,31.213 111.173,31.334 111.419,31.576 C111.665,31.818 111.789,32.110 111.789,32.453 C111.789,32.595 111.746,32.772 111.662,32.984 L105.822,43.117 L111.482,43.117 C111.746,43.117 111.972,43.209 112.158,43.392 C112.344,43.575 112.437,43.796 112.437,44.056 C112.437,44.316 112.344,44.537 112.158,44.720 C111.972,44.903 111.746,44.995 111.482,44.995 ZM89.979,34.880 L89.943,34.880 L89.943,44.995 L87.852,44.995 L87.852,31.213 L92.268,31.213 L96.936,38.175 L96.990,38.175 L96.990,32.028 C96.990,31.733 97.092,31.487 97.297,31.293 C97.501,31.098 97.753,31.000 98.054,31.000 C98.342,31.000 98.583,31.101 98.775,31.301 C98.967,31.502 99.063,31.744 99.063,32.028 L99.063,44.995 L96.774,44.995 L89.979,34.880 ZM85.761,43.117 C86.025,43.117 86.251,43.209 86.437,43.392 C86.623,43.575 86.722,43.796 86.735,44.056 C86.746,44.316 86.653,44.537 86.455,44.720 C86.257,44.903 86.025,44.995 85.761,44.995 L77.722,44.995 L77.704,32.488 C77.704,32.146 77.833,31.848 78.092,31.594 C78.350,31.340 78.653,31.213 79.002,31.213 L85.671,31.213 C85.935,31.213 86.164,31.304 86.356,31.487 C86.548,31.671 86.644,31.892 86.644,32.152 C86.644,32.412 86.551,32.633 86.365,32.816 C86.179,32.999 85.953,33.091 85.689,33.091 L81.652,33.091 L81.652,36.988 L86.374,36.988 L86.374,38.848 L81.670,38.848 L81.670,43.117 L85.761,43.117 ZM72.747,44.995 L68.800,44.995 L68.800,33.091 L65.952,33.091 C65.688,33.091 65.462,32.999 65.276,32.816 C65.090,32.633 64.997,32.412 64.997,32.152 C64.997,31.892 65.090,31.671 65.276,31.487 C65.462,31.304 65.688,31.213 65.952,31.213 L76.533,31.213 L76.533,33.091 L72.747,33.091 L72.747,44.995 Z" class="cls-3"/>
</svg>
