<svg xmlns="http://www.w3.org/2000/svg" xmlns:xlink="http://www.w3.org/1999/xlink" preserveAspectRatio="xMidYMid" width="350" height="75" viewBox="0 0 350 75">
  <defs>
    <style>
      .cls-1, .cls-2 {
        fill: #fff;
      }

      .cls-2 {
        fill-rule: evenodd;
      }
    </style>
  </defs>
  <circle cx="31.391" cy="31.063" r="3.672" class="cls-1"/>
  <path d="M75.000,3.000 C64.417,37.036 37.333,62.689 15.000,24.674 C45.667,51.090 34.642,26.330 30.667,9.773 C51.083,52.783 68.521,12.255 75.000,3.000 Z" class="cls-2"/>
  <path d="M62.667,35.173 C50.500,50.751 33.250,49.989 22.667,41.607 C23.917,56.847 31.333,65.529 45.333,64.975 C60.842,63.581 66.417,47.026 62.667,35.173 Z" class="cls-2"/>
  <path d="M327.523,59.242 C327.326,59.683 327.063,60.050 326.732,60.344 C326.401,60.638 326.009,60.852 325.556,60.986 C325.102,61.121 324.643,61.188 324.177,61.188 L320.060,61.188 C319.202,61.188 318.461,61.103 317.836,60.931 C317.211,60.760 316.635,60.448 316.108,59.995 C315.581,59.542 315.073,58.930 314.583,58.159 C314.092,57.388 313.541,56.391 312.928,55.166 L301.091,32.950 C300.405,31.628 299.707,30.202 298.996,28.672 C298.285,27.143 297.648,25.655 297.085,24.211 L297.011,24.211 C297.109,25.973 297.182,27.730 297.232,29.480 C297.280,31.231 297.305,33.036 297.305,34.896 L297.305,59.756 C297.305,60.001 297.237,60.222 297.103,60.417 C296.968,60.614 296.735,60.779 296.404,60.913 C296.074,61.048 295.626,61.152 295.063,61.225 C294.499,61.299 293.776,61.335 292.894,61.335 C292.036,61.335 291.325,61.299 290.762,61.225 C290.198,61.152 289.756,61.048 289.438,60.913 C289.119,60.779 288.899,60.614 288.777,60.417 C288.654,60.222 288.593,60.001 288.593,59.756 L288.593,17.050 C288.593,15.900 288.929,15.037 289.604,14.461 C290.277,13.886 291.105,13.598 292.085,13.598 L297.268,13.598 C298.199,13.598 298.983,13.678 299.621,13.837 C300.258,13.997 300.828,14.259 301.330,14.627 C301.832,14.994 302.305,15.502 302.746,16.150 C303.187,16.799 303.640,17.601 304.106,18.556 L313.370,35.925 C313.908,36.977 314.441,38.012 314.969,39.027 C315.495,40.044 316.004,41.060 316.494,42.075 C316.984,43.091 317.462,44.089 317.928,45.068 C318.393,46.047 318.847,47.027 319.288,48.006 L319.325,48.006 C319.251,46.292 319.196,44.505 319.159,42.644 C319.123,40.784 319.104,39.009 319.104,37.320 L319.104,15.031 C319.104,14.786 319.178,14.566 319.325,14.370 C319.472,14.174 319.717,14.002 320.060,13.855 C320.403,13.709 320.856,13.605 321.420,13.543 C321.984,13.483 322.707,13.452 323.589,13.452 C324.422,13.452 325.121,13.483 325.685,13.543 C326.248,13.605 326.683,13.709 326.990,13.855 C327.296,14.002 327.510,14.174 327.633,14.370 C327.755,14.566 327.817,14.786 327.817,15.031 L327.817,57.737 C327.817,58.300 327.718,58.802 327.523,59.242 ZM279.697,60.270 C279.574,60.564 279.421,60.779 279.237,60.913 C279.053,61.048 278.851,61.115 278.630,61.115 L254.736,61.115 C253.927,61.115 253.247,60.876 252.696,60.399 C252.144,59.922 251.868,59.145 251.868,58.067 L251.868,16.646 C251.868,15.569 252.144,14.792 252.696,14.314 C253.247,13.837 253.927,13.598 254.736,13.598 L278.483,13.598 C278.704,13.598 278.900,13.660 279.072,13.782 C279.243,13.905 279.390,14.119 279.513,14.425 C279.635,14.731 279.727,15.122 279.788,15.600 C279.849,16.077 279.880,16.683 279.880,17.417 C279.880,18.103 279.849,18.684 279.788,19.162 C279.727,19.639 279.635,20.025 279.513,20.318 C279.390,20.612 279.243,20.827 279.072,20.961 C278.900,21.096 278.704,21.163 278.483,21.163 L261.500,21.163 L261.500,32.767 L275.873,32.767 C276.094,32.767 276.296,32.834 276.480,32.969 C276.664,33.103 276.817,33.312 276.939,33.593 C277.062,33.875 277.154,34.254 277.215,34.731 C277.276,35.209 277.307,35.790 277.307,36.475 C277.307,37.186 277.276,37.773 277.215,38.238 C277.154,38.703 277.062,39.077 276.939,39.358 C276.817,39.640 276.664,39.842 276.480,39.964 C276.296,40.087 276.094,40.147 275.873,40.147 L261.500,40.147 L261.500,53.551 L278.630,53.551 C278.851,53.551 279.053,53.618 279.237,53.752 C279.421,53.887 279.574,54.101 279.697,54.395 C279.819,54.689 279.911,55.074 279.972,55.552 C280.033,56.029 280.064,56.623 280.064,57.333 C280.064,58.043 280.033,58.636 279.972,59.114 C279.911,59.591 279.819,59.977 279.697,60.270 ZM244.737,60.289 C244.614,60.595 244.461,60.809 244.277,60.931 C244.094,61.054 243.891,61.115 243.671,61.115 L215.622,61.115 C214.642,61.115 213.888,60.834 213.361,60.270 C212.834,59.708 212.571,58.888 212.571,57.810 L212.571,56.194 C212.571,55.705 212.601,55.258 212.663,54.854 C212.724,54.450 212.828,54.041 212.975,53.624 C213.122,53.208 213.337,52.755 213.619,52.265 C213.900,51.776 214.249,51.188 214.666,50.503 L233.120,21.273 L214.813,21.273 C214.519,21.273 214.268,21.206 214.060,21.071 C213.851,20.937 213.680,20.722 213.545,20.428 C213.410,20.135 213.312,19.743 213.251,19.253 C213.190,18.764 213.159,18.176 213.159,17.491 C213.159,16.756 213.190,16.138 213.251,15.636 C213.312,15.135 213.410,14.731 213.545,14.425 C213.680,14.119 213.851,13.905 214.060,13.782 C214.268,13.660 214.519,13.598 214.813,13.598 L241.098,13.598 C242.102,13.598 242.844,13.855 243.322,14.370 C243.799,14.884 244.038,15.606 244.038,16.536 L244.038,18.335 C244.038,18.996 244.007,19.566 243.946,20.043 C243.885,20.520 243.775,20.986 243.616,21.438 C243.456,21.892 243.242,22.356 242.972,22.834 C242.702,23.311 242.359,23.880 241.943,24.541 L223.783,53.367 L243.671,53.367 C244.136,53.367 244.492,53.661 244.737,54.248 C244.982,54.836 245.104,55.852 245.104,57.296 C245.104,58.006 245.073,58.606 245.013,59.095 C244.951,59.585 244.859,59.983 244.737,60.289 ZM204.428,60.344 C204.098,60.638 203.705,60.852 203.252,60.986 C202.798,61.121 202.339,61.188 201.874,61.188 L197.756,61.188 C196.898,61.188 196.157,61.103 195.532,60.931 C194.907,60.760 194.331,60.448 193.804,59.995 C193.277,59.542 192.769,58.930 192.279,58.159 C191.788,57.388 191.237,56.391 190.625,55.166 L178.788,32.950 C178.101,31.628 177.403,30.202 176.692,28.672 C175.981,27.143 175.344,25.655 174.781,24.211 L174.707,24.211 C174.805,25.973 174.878,27.730 174.928,29.480 C174.977,31.231 175.001,33.036 175.001,34.896 L175.001,59.756 C175.001,60.001 174.933,60.222 174.799,60.417 C174.664,60.614 174.431,60.779 174.101,60.913 C173.770,61.048 173.322,61.152 172.759,61.225 C172.195,61.299 171.472,61.335 170.590,61.335 C169.732,61.335 169.021,61.299 168.458,61.225 C167.894,61.152 167.453,61.048 167.134,60.913 C166.816,60.779 166.595,60.614 166.473,60.417 C166.350,60.222 166.289,60.001 166.289,59.756 L166.289,17.050 C166.289,15.900 166.625,15.037 167.300,14.461 C167.974,13.886 168.801,13.598 169.781,13.598 L174.964,13.598 C175.896,13.598 176.680,13.678 177.317,13.837 C177.954,13.997 178.524,14.259 179.027,14.627 C179.529,14.994 180.001,15.502 180.442,16.150 C180.883,16.799 181.336,17.601 181.802,18.556 L191.066,35.925 C191.605,36.977 192.138,38.012 192.665,39.027 C193.192,40.044 193.700,41.060 194.190,42.075 C194.680,43.091 195.158,44.089 195.624,45.068 C196.089,46.047 196.543,47.027 196.984,48.006 L197.021,48.006 C196.948,46.292 196.892,44.505 196.856,42.644 C196.819,40.784 196.801,39.009 196.801,37.320 L196.801,15.031 C196.801,14.786 196.874,14.566 197.021,14.370 C197.168,14.174 197.413,14.002 197.756,13.855 C198.099,13.709 198.552,13.605 199.116,13.543 C199.680,13.483 200.403,13.452 201.285,13.452 C202.118,13.452 202.817,13.483 203.381,13.543 C203.944,13.605 204.379,13.709 204.686,13.855 C204.992,14.002 205.206,14.174 205.329,14.370 C205.451,14.566 205.513,14.786 205.513,15.031 L205.513,57.737 C205.513,58.300 205.415,58.802 205.219,59.242 C205.022,59.683 204.759,60.050 204.428,60.344 ZM157.393,60.270 C157.270,60.564 157.117,60.779 156.933,60.913 C156.749,61.048 156.547,61.115 156.327,61.115 L132.432,61.115 C131.623,61.115 130.943,60.876 130.392,60.399 C129.840,59.922 129.565,59.145 129.565,58.067 L129.565,16.646 C129.565,15.569 129.840,14.792 130.392,14.314 C130.943,13.837 131.623,13.598 132.432,13.598 L156.180,13.598 C156.400,13.598 156.596,13.660 156.768,13.782 C156.939,13.905 157.086,14.119 157.209,14.425 C157.331,14.731 157.423,15.122 157.485,15.600 C157.546,16.077 157.577,16.683 157.577,17.417 C157.577,18.103 157.546,18.684 157.485,19.162 C157.423,19.639 157.331,20.025 157.209,20.318 C157.086,20.612 156.939,20.827 156.768,20.961 C156.596,21.096 156.400,21.163 156.180,21.163 L139.196,21.163 L139.196,32.767 L153.570,32.767 C153.790,32.767 153.992,32.834 154.176,32.969 C154.360,33.103 154.513,33.312 154.636,33.593 C154.758,33.875 154.850,34.254 154.911,34.731 C154.972,35.209 155.003,35.790 155.003,36.475 C155.003,37.186 154.972,37.773 154.911,38.238 C154.850,38.703 154.758,39.077 154.636,39.358 C154.513,39.640 154.360,39.842 154.176,39.964 C153.992,40.087 153.790,40.147 153.570,40.147 L139.196,40.147 L139.196,53.551 L156.327,53.551 C156.547,53.551 156.749,53.618 156.933,53.752 C157.117,53.887 157.270,54.101 157.393,54.395 C157.515,54.689 157.607,55.074 157.668,55.552 C157.729,56.029 157.760,56.623 157.760,57.333 C157.760,58.043 157.729,58.636 157.668,59.114 C157.607,59.591 157.515,59.977 157.393,60.270 ZM123.573,20.594 C123.450,20.900 123.297,21.126 123.113,21.273 C122.929,21.420 122.727,21.493 122.507,21.493 L110.596,21.493 L110.596,59.793 C110.596,60.038 110.516,60.258 110.357,60.454 C110.197,60.650 109.934,60.809 109.567,60.931 C109.199,61.054 108.703,61.152 108.078,61.225 C107.453,61.299 106.675,61.335 105.744,61.335 C104.812,61.335 104.034,61.299 103.409,61.225 C102.784,61.152 102.288,61.054 101.920,60.931 C101.553,60.809 101.289,60.650 101.130,60.454 C100.970,60.258 100.891,60.038 100.891,59.793 L100.891,21.493 L88.981,21.493 C88.735,21.493 88.527,21.420 88.356,21.273 C88.184,21.126 88.037,20.900 87.914,20.594 C87.792,20.288 87.700,19.884 87.639,19.382 C87.577,18.880 87.547,18.275 87.547,17.564 C87.547,16.830 87.577,16.206 87.639,15.691 C87.700,15.177 87.792,14.768 87.914,14.461 C88.037,14.156 88.184,13.935 88.356,13.800 C88.527,13.666 88.735,13.598 88.981,13.598 L122.507,13.598 C122.727,13.598 122.929,13.666 123.113,13.800 C123.297,13.935 123.450,14.156 123.573,14.461 C123.695,14.768 123.787,15.177 123.848,15.691 C123.909,16.206 123.940,16.830 123.940,17.564 C123.940,18.275 123.909,18.880 123.848,19.382 C123.787,19.884 123.695,20.288 123.573,20.594 Z" class="cls-2"/>
</svg>
