<svg xmlns="http://www.w3.org/2000/svg" xmlns:xlink="http://www.w3.org/1999/xlink" preserveAspectRatio="xMidYMid" width="350" height="75" viewBox="0 0 350 75">
  <defs>
    <style>
      .cls-1 {
        fill: #abdbea;
        fill-rule: evenodd;
      }
    </style>
  </defs>
  <path d="M30.017,29.476 C31.595,28.323 34.105,29.116 35.623,31.247 C37.140,33.378 37.091,36.040 35.512,37.192 C33.934,38.344 31.424,37.551 29.906,35.420 C28.389,33.289 28.438,30.628 30.017,29.476 Z" class="cls-1"/>
  <path d="M80.000,3.000 C68.535,39.780 39.194,67.503 15.000,26.422 C48.222,54.968 36.279,28.212 31.972,10.319 C54.090,56.798 72.981,13.001 80.000,3.000 Z" class="cls-1"/>
  <path d="M66.639,37.767 C53.458,54.602 34.771,53.779 23.306,44.721 C24.660,61.190 32.694,70.571 47.861,69.973 C64.662,68.467 70.701,50.577 66.639,37.767 Z" class="cls-1"/>
  <path d="M218.308,53.077 C218.200,53.322 218.054,53.525 217.870,53.688 C217.687,53.851 217.470,53.969 217.219,54.044 C216.967,54.118 216.713,54.156 216.455,54.156 L214.174,54.156 C213.698,54.156 213.288,54.108 212.942,54.013 C212.595,53.919 212.276,53.746 211.984,53.494 C211.692,53.244 211.410,52.904 211.139,52.477 C210.867,52.050 210.562,51.497 210.223,50.819 L203.664,38.510 C203.284,37.778 202.897,36.988 202.503,36.140 C202.109,35.293 201.756,34.469 201.444,33.668 L201.403,33.668 C201.458,34.645 201.498,35.618 201.526,36.588 C201.553,37.558 201.566,38.558 201.566,39.589 L201.566,53.362 C201.566,53.498 201.529,53.620 201.454,53.728 C201.380,53.837 201.251,53.929 201.067,54.003 C200.884,54.078 200.636,54.135 200.324,54.176 C200.011,54.217 199.611,54.237 199.122,54.237 C198.647,54.237 198.253,54.217 197.941,54.176 C197.628,54.135 197.384,54.078 197.208,54.003 C197.031,53.929 196.909,53.837 196.841,53.728 C196.773,53.620 196.739,53.498 196.739,53.362 L196.739,29.701 C196.739,29.064 196.926,28.585 197.299,28.267 C197.673,27.948 198.131,27.788 198.674,27.788 L201.546,27.788 C202.062,27.788 202.496,27.833 202.850,27.921 C203.202,28.009 203.518,28.155 203.797,28.358 C204.075,28.562 204.336,28.843 204.581,29.202 C204.825,29.562 205.076,30.006 205.334,30.535 L210.467,40.158 C210.765,40.742 211.061,41.315 211.353,41.877 C211.645,42.440 211.926,43.003 212.198,43.566 C212.470,44.129 212.734,44.682 212.992,45.224 C213.250,45.767 213.502,46.309 213.746,46.852 L213.766,46.852 C213.726,45.903 213.695,44.912 213.675,43.881 C213.654,42.851 213.644,41.867 213.644,40.931 L213.644,28.582 C213.644,28.447 213.685,28.324 213.766,28.216 C213.848,28.107 213.983,28.012 214.174,27.931 C214.364,27.850 214.615,27.792 214.927,27.758 C215.240,27.724 215.640,27.707 216.129,27.707 C216.590,27.707 216.977,27.724 217.290,27.758 C217.602,27.792 217.843,27.850 218.013,27.931 C218.183,28.012 218.301,28.107 218.369,28.216 C218.437,28.324 218.471,28.447 218.471,28.582 L218.471,52.243 C218.471,52.555 218.417,52.833 218.308,53.077 ZM191.810,53.647 C191.742,53.810 191.658,53.929 191.556,54.003 C191.454,54.078 191.342,54.115 191.220,54.115 L177.981,54.115 C177.533,54.115 177.156,53.983 176.851,53.718 C176.545,53.454 176.392,53.023 176.392,52.426 L176.392,29.477 C176.392,28.880 176.545,28.450 176.851,28.185 C177.156,27.921 177.533,27.788 177.981,27.788 L191.138,27.788 C191.260,27.788 191.369,27.823 191.464,27.890 C191.559,27.958 191.640,28.077 191.709,28.246 C191.776,28.416 191.827,28.633 191.861,28.897 C191.895,29.162 191.912,29.497 191.912,29.904 C191.912,30.284 191.895,30.606 191.861,30.871 C191.827,31.135 191.776,31.349 191.709,31.512 C191.640,31.674 191.559,31.793 191.464,31.868 C191.369,31.942 191.260,31.980 191.138,31.980 L181.729,31.980 L181.729,38.409 L189.692,38.409 C189.814,38.409 189.926,38.446 190.028,38.521 C190.130,38.595 190.215,38.711 190.283,38.866 C190.351,39.022 190.402,39.233 190.436,39.497 C190.469,39.762 190.487,40.084 190.487,40.463 C190.487,40.857 190.469,41.183 190.436,41.440 C190.402,41.698 190.351,41.905 190.283,42.061 C190.215,42.217 190.130,42.329 190.028,42.396 C189.926,42.464 189.814,42.498 189.692,42.498 L181.729,42.498 L181.729,49.924 L191.220,49.924 C191.342,49.924 191.454,49.961 191.556,50.036 C191.658,50.111 191.742,50.229 191.810,50.392 C191.878,50.555 191.929,50.768 191.963,51.033 C191.997,51.297 192.014,51.626 192.014,52.019 C192.014,52.413 191.997,52.742 191.963,53.006 C191.929,53.271 191.878,53.484 191.810,53.647 ZM172.441,53.657 C172.373,53.827 172.288,53.946 172.186,54.013 C172.085,54.081 171.973,54.115 171.850,54.115 L156.310,54.115 C155.767,54.115 155.349,53.959 155.057,53.647 C154.765,53.335 154.620,52.881 154.620,52.284 L154.620,51.389 C154.620,51.118 154.636,50.870 154.670,50.646 C154.704,50.422 154.762,50.195 154.844,49.965 C154.925,49.734 155.044,49.483 155.200,49.212 C155.356,48.941 155.549,48.615 155.780,48.235 L166.005,32.041 L155.862,32.041 C155.699,32.041 155.560,32.003 155.444,31.929 C155.329,31.854 155.234,31.735 155.159,31.573 C155.085,31.410 155.030,31.193 154.996,30.922 C154.962,30.650 154.945,30.325 154.945,29.945 C154.945,29.538 154.962,29.196 154.996,28.918 C155.030,28.640 155.085,28.416 155.159,28.246 C155.234,28.077 155.329,27.958 155.444,27.890 C155.560,27.823 155.699,27.788 155.862,27.788 L170.425,27.788 C170.981,27.788 171.392,27.931 171.657,28.216 C171.922,28.501 172.054,28.901 172.054,29.416 L172.054,30.413 C172.054,30.779 172.037,31.095 172.003,31.359 C171.969,31.624 171.908,31.881 171.820,32.132 C171.731,32.383 171.613,32.641 171.463,32.905 C171.314,33.170 171.124,33.485 170.893,33.851 L160.832,49.822 L171.850,49.822 C172.108,49.822 172.305,49.985 172.441,50.310 C172.577,50.636 172.645,51.199 172.645,51.999 C172.645,52.393 172.627,52.725 172.594,52.996 C172.560,53.267 172.509,53.488 172.441,53.657 ZM150.108,53.688 C149.925,53.851 149.708,53.969 149.456,54.044 C149.205,54.118 148.950,54.156 148.693,54.156 L146.412,54.156 C145.936,54.156 145.526,54.108 145.179,54.013 C144.833,53.919 144.514,53.746 144.222,53.494 C143.930,53.244 143.648,52.904 143.377,52.477 C143.105,52.050 142.799,51.497 142.460,50.819 L135.902,38.510 C135.522,37.778 135.135,36.988 134.741,36.140 C134.347,35.293 133.994,34.469 133.682,33.668 L133.641,33.668 C133.695,34.645 133.736,35.618 133.763,36.588 C133.790,37.558 133.804,38.558 133.804,39.589 L133.804,53.362 C133.804,53.498 133.767,53.620 133.692,53.728 C133.617,53.837 133.488,53.929 133.305,54.003 C133.122,54.078 132.874,54.135 132.562,54.176 C132.249,54.217 131.849,54.237 131.360,54.237 C130.885,54.237 130.491,54.217 130.179,54.176 C129.866,54.135 129.622,54.078 129.445,54.003 C129.269,53.929 129.147,53.837 129.079,53.728 C129.011,53.620 128.977,53.498 128.977,53.362 L128.977,29.701 C128.977,29.064 129.164,28.585 129.537,28.267 C129.910,27.948 130.369,27.788 130.912,27.788 L133.784,27.788 C134.300,27.788 134.734,27.833 135.087,27.921 C135.440,28.009 135.756,28.155 136.034,28.358 C136.312,28.562 136.574,28.843 136.818,29.202 C137.063,29.562 137.314,30.006 137.572,30.535 L142.705,40.158 C143.003,40.742 143.298,41.315 143.591,41.877 C143.882,42.440 144.164,43.003 144.436,43.566 C144.707,44.129 144.972,44.682 145.230,45.224 C145.488,45.767 145.739,46.309 145.984,46.852 L146.004,46.852 C145.963,45.903 145.933,44.912 145.913,43.881 C145.892,42.851 145.882,41.867 145.882,40.931 L145.882,28.582 C145.882,28.447 145.923,28.324 146.004,28.216 C146.086,28.107 146.221,28.012 146.412,27.931 C146.601,27.850 146.853,27.792 147.165,27.758 C147.477,27.724 147.878,27.707 148.367,27.707 C148.828,27.707 149.215,27.724 149.528,27.758 C149.840,27.792 150.081,27.850 150.251,27.931 C150.420,28.012 150.539,28.107 150.607,28.216 C150.675,28.324 150.709,28.447 150.709,28.582 L150.709,52.243 C150.709,52.555 150.655,52.833 150.546,53.077 C150.437,53.322 150.291,53.525 150.108,53.688 ZM124.048,53.647 C123.980,53.810 123.895,53.929 123.794,54.003 C123.692,54.078 123.580,54.115 123.457,54.115 L110.219,54.115 C109.771,54.115 109.394,53.983 109.088,53.718 C108.783,53.454 108.630,53.023 108.630,52.426 L108.630,29.477 C108.630,28.880 108.783,28.450 109.088,28.185 C109.394,27.921 109.771,27.788 110.219,27.788 L123.376,27.788 C123.498,27.788 123.607,27.823 123.702,27.890 C123.797,27.958 123.878,28.077 123.946,28.246 C124.014,28.416 124.065,28.633 124.099,28.897 C124.133,29.162 124.150,29.497 124.150,29.904 C124.150,30.284 124.133,30.606 124.099,30.871 C124.065,31.135 124.014,31.349 123.946,31.512 C123.878,31.674 123.797,31.793 123.702,31.868 C123.607,31.942 123.498,31.980 123.376,31.980 L113.966,31.980 L113.966,38.409 L121.930,38.409 C122.052,38.409 122.164,38.446 122.266,38.521 C122.368,38.595 122.452,38.711 122.521,38.866 C122.588,39.022 122.639,39.233 122.673,39.497 C122.707,39.762 122.724,40.084 122.724,40.463 C122.724,40.857 122.707,41.183 122.673,41.440 C122.639,41.698 122.588,41.905 122.521,42.061 C122.452,42.217 122.368,42.329 122.266,42.396 C122.164,42.464 122.052,42.498 121.930,42.498 L113.966,42.498 L113.966,49.924 L123.457,49.924 C123.580,49.924 123.692,49.961 123.794,50.036 C123.895,50.111 123.980,50.229 124.048,50.392 C124.116,50.555 124.167,50.768 124.201,51.033 C124.235,51.297 124.252,51.626 124.252,52.019 C124.252,52.413 124.235,52.742 124.201,53.006 C124.167,53.271 124.116,53.484 124.048,53.647 ZM105.310,31.664 C105.242,31.834 105.157,31.959 105.056,32.041 C104.954,32.122 104.842,32.163 104.719,32.163 L98.120,32.163 L98.120,53.383 C98.120,53.518 98.076,53.640 97.988,53.749 C97.900,53.858 97.754,53.946 97.550,54.013 C97.346,54.081 97.072,54.135 96.725,54.176 C96.379,54.217 95.948,54.237 95.432,54.237 C94.916,54.237 94.485,54.217 94.139,54.176 C93.792,54.135 93.517,54.081 93.314,54.013 C93.110,53.946 92.964,53.858 92.876,53.749 C92.787,53.640 92.743,53.518 92.743,53.383 L92.743,32.163 L86.144,32.163 C86.009,32.163 85.893,32.122 85.798,32.041 C85.703,31.959 85.622,31.834 85.554,31.664 C85.486,31.495 85.435,31.271 85.401,30.993 C85.367,30.715 85.350,30.379 85.350,29.986 C85.350,29.579 85.367,29.233 85.401,28.948 C85.435,28.663 85.486,28.436 85.554,28.267 C85.622,28.097 85.703,27.975 85.798,27.900 C85.893,27.826 86.009,27.788 86.144,27.788 L104.719,27.788 C104.842,27.788 104.954,27.826 105.056,27.900 C105.157,27.975 105.242,28.097 105.310,28.267 C105.378,28.436 105.429,28.663 105.463,28.948 C105.497,29.233 105.514,29.579 105.514,29.986 C105.514,30.379 105.497,30.715 105.463,30.993 C105.429,31.271 105.378,31.495 105.310,31.664 Z" class="cls-1"/>
</svg>
