<svg xmlns="http://www.w3.org/2000/svg" xmlns:xlink="http://www.w3.org/1999/xlink" preserveAspectRatio="xMidYMid" width="350" height="75" viewBox="0 0 350 75">
  <defs>
    <style>
      .cls-1 {
        fill: #333;
      }

      .cls-1, .cls-2 {
        fill-rule: evenodd;
      }

      .cls-2 {
        fill: #fff;
      }
    </style>
  </defs>
  <path d="M217.308,52.077 C217.200,52.322 217.054,52.525 216.870,52.688 C216.687,52.851 216.470,52.969 216.219,53.044 C215.967,53.118 215.713,53.156 215.455,53.156 L213.174,53.156 C212.698,53.156 212.288,53.108 211.942,53.013 C211.595,52.919 211.276,52.746 210.984,52.494 C210.692,52.244 210.410,51.904 210.139,51.477 C209.867,51.050 209.562,50.497 209.223,49.819 L202.664,37.510 C202.284,36.778 201.897,35.988 201.503,35.140 C201.109,34.293 200.756,33.469 200.444,32.668 L200.403,32.668 C200.458,33.645 200.498,34.618 200.526,35.588 C200.553,36.558 200.566,37.558 200.566,38.589 L200.566,52.362 C200.566,52.498 200.529,52.620 200.454,52.728 C200.380,52.837 200.251,52.929 200.067,53.003 C199.884,53.078 199.636,53.135 199.324,53.176 C199.011,53.217 198.611,53.237 198.122,53.237 C197.647,53.237 197.253,53.217 196.941,53.176 C196.628,53.135 196.384,53.078 196.208,53.003 C196.031,52.929 195.909,52.837 195.841,52.728 C195.773,52.620 195.739,52.498 195.739,52.362 L195.739,28.701 C195.739,28.064 195.926,27.585 196.299,27.267 C196.673,26.948 197.131,26.788 197.674,26.788 L200.546,26.788 C201.062,26.788 201.496,26.833 201.850,26.921 C202.202,27.009 202.518,27.155 202.797,27.358 C203.075,27.562 203.336,27.843 203.581,28.202 C203.825,28.562 204.076,29.006 204.334,29.535 L209.467,39.158 C209.765,39.742 210.061,40.315 210.353,40.877 C210.645,41.440 210.926,42.003 211.198,42.566 C211.470,43.129 211.734,43.682 211.992,44.224 C212.250,44.767 212.502,45.309 212.746,45.852 L212.766,45.852 C212.726,44.903 212.695,43.912 212.675,42.881 C212.654,41.851 212.644,40.867 212.644,39.931 L212.644,27.582 C212.644,27.447 212.685,27.324 212.766,27.216 C212.848,27.107 212.983,27.012 213.174,26.931 C213.364,26.850 213.615,26.792 213.927,26.758 C214.240,26.724 214.640,26.707 215.129,26.707 C215.590,26.707 215.977,26.724 216.290,26.758 C216.602,26.792 216.843,26.850 217.013,26.931 C217.183,27.012 217.301,27.107 217.369,27.216 C217.437,27.324 217.471,27.447 217.471,27.582 L217.471,51.243 C217.471,51.555 217.417,51.833 217.308,52.077 ZM190.810,52.647 C190.742,52.810 190.658,52.929 190.556,53.003 C190.454,53.078 190.342,53.115 190.220,53.115 L176.981,53.115 C176.533,53.115 176.156,52.983 175.851,52.718 C175.545,52.454 175.392,52.023 175.392,51.426 L175.392,28.477 C175.392,27.880 175.545,27.450 175.851,27.185 C176.156,26.921 176.533,26.788 176.981,26.788 L190.138,26.788 C190.260,26.788 190.369,26.823 190.464,26.890 C190.559,26.958 190.640,27.077 190.709,27.246 C190.776,27.416 190.827,27.633 190.861,27.897 C190.895,28.162 190.912,28.497 190.912,28.904 C190.912,29.284 190.895,29.606 190.861,29.871 C190.827,30.135 190.776,30.349 190.709,30.512 C190.640,30.674 190.559,30.793 190.464,30.868 C190.369,30.942 190.260,30.980 190.138,30.980 L180.729,30.980 L180.729,37.409 L188.692,37.409 C188.814,37.409 188.926,37.446 189.028,37.521 C189.130,37.595 189.215,37.711 189.283,37.866 C189.351,38.022 189.402,38.233 189.436,38.497 C189.469,38.762 189.487,39.084 189.487,39.463 C189.487,39.857 189.469,40.183 189.436,40.440 C189.402,40.698 189.351,40.905 189.283,41.061 C189.215,41.217 189.130,41.329 189.028,41.396 C188.926,41.464 188.814,41.498 188.692,41.498 L180.729,41.498 L180.729,48.924 L190.220,48.924 C190.342,48.924 190.454,48.961 190.556,49.036 C190.658,49.111 190.742,49.229 190.810,49.392 C190.878,49.555 190.929,49.768 190.963,50.033 C190.997,50.297 191.014,50.626 191.014,51.019 C191.014,51.413 190.997,51.742 190.963,52.006 C190.929,52.271 190.878,52.484 190.810,52.647 ZM171.441,52.657 C171.373,52.827 171.288,52.946 171.186,53.013 C171.085,53.081 170.973,53.115 170.850,53.115 L155.310,53.115 C154.767,53.115 154.349,52.959 154.057,52.647 C153.765,52.335 153.620,51.881 153.620,51.284 L153.620,50.389 C153.620,50.118 153.636,49.870 153.670,49.646 C153.704,49.422 153.762,49.195 153.844,48.965 C153.925,48.734 154.044,48.483 154.200,48.212 C154.356,47.941 154.549,47.615 154.780,47.235 L165.005,31.041 L154.862,31.041 C154.699,31.041 154.560,31.003 154.444,30.929 C154.329,30.854 154.234,30.735 154.159,30.573 C154.085,30.410 154.030,30.193 153.996,29.922 C153.962,29.650 153.945,29.325 153.945,28.945 C153.945,28.538 153.962,28.196 153.996,27.918 C154.030,27.640 154.085,27.416 154.159,27.246 C154.234,27.077 154.329,26.958 154.444,26.890 C154.560,26.823 154.699,26.788 154.862,26.788 L169.425,26.788 C169.981,26.788 170.392,26.931 170.657,27.216 C170.922,27.501 171.054,27.901 171.054,28.416 L171.054,29.413 C171.054,29.779 171.037,30.095 171.003,30.359 C170.969,30.624 170.908,30.881 170.820,31.132 C170.731,31.383 170.613,31.641 170.463,31.905 C170.314,32.170 170.124,32.485 169.893,32.851 L159.832,48.822 L170.850,48.822 C171.108,48.822 171.305,48.985 171.441,49.310 C171.577,49.636 171.645,50.199 171.645,50.999 C171.645,51.393 171.628,51.725 171.594,51.996 C171.560,52.267 171.509,52.488 171.441,52.657 ZM149.108,52.688 C148.925,52.851 148.708,52.969 148.456,53.044 C148.205,53.118 147.950,53.156 147.693,53.156 L145.412,53.156 C144.936,53.156 144.526,53.108 144.179,53.013 C143.833,52.919 143.514,52.746 143.222,52.494 C142.930,52.244 142.648,51.904 142.377,51.477 C142.105,51.050 141.799,50.497 141.460,49.819 L134.902,37.510 C134.522,36.778 134.135,35.988 133.741,35.140 C133.347,34.293 132.994,33.469 132.682,32.668 L132.641,32.668 C132.695,33.645 132.736,34.618 132.763,35.588 C132.790,36.558 132.804,37.558 132.804,38.589 L132.804,52.362 C132.804,52.498 132.767,52.620 132.692,52.728 C132.617,52.837 132.488,52.929 132.305,53.003 C132.122,53.078 131.874,53.135 131.562,53.176 C131.249,53.217 130.849,53.237 130.360,53.237 C129.885,53.237 129.491,53.217 129.179,53.176 C128.866,53.135 128.622,53.078 128.445,53.003 C128.269,52.929 128.147,52.837 128.079,52.728 C128.011,52.620 127.977,52.498 127.977,52.362 L127.977,28.701 C127.977,28.064 128.164,27.585 128.537,27.267 C128.910,26.948 129.369,26.788 129.912,26.788 L132.784,26.788 C133.300,26.788 133.734,26.833 134.087,26.921 C134.440,27.009 134.756,27.155 135.034,27.358 C135.312,27.562 135.574,27.843 135.818,28.202 C136.063,28.562 136.314,29.006 136.572,29.535 L141.705,39.158 C142.003,39.742 142.298,40.315 142.591,40.877 C142.882,41.440 143.164,42.003 143.436,42.566 C143.707,43.129 143.972,43.682 144.230,44.224 C144.488,44.767 144.739,45.309 144.984,45.852 L145.004,45.852 C144.963,44.903 144.933,43.912 144.913,42.881 C144.892,41.851 144.882,40.867 144.882,39.931 L144.882,27.582 C144.882,27.447 144.923,27.324 145.004,27.216 C145.086,27.107 145.221,27.012 145.412,26.931 C145.601,26.850 145.853,26.792 146.165,26.758 C146.477,26.724 146.878,26.707 147.367,26.707 C147.828,26.707 148.215,26.724 148.528,26.758 C148.840,26.792 149.081,26.850 149.251,26.931 C149.420,27.012 149.539,27.107 149.607,27.216 C149.675,27.324 149.709,27.447 149.709,27.582 L149.709,51.243 C149.709,51.555 149.655,51.833 149.546,52.077 C149.437,52.322 149.291,52.525 149.108,52.688 ZM123.048,52.647 C122.980,52.810 122.895,52.929 122.794,53.003 C122.692,53.078 122.580,53.115 122.457,53.115 L109.219,53.115 C108.771,53.115 108.394,52.983 108.088,52.718 C107.783,52.454 107.630,52.023 107.630,51.426 L107.630,28.477 C107.630,27.880 107.783,27.450 108.088,27.185 C108.394,26.921 108.771,26.788 109.219,26.788 L122.376,26.788 C122.498,26.788 122.607,26.823 122.702,26.890 C122.797,26.958 122.878,27.077 122.946,27.246 C123.014,27.416 123.065,27.633 123.099,27.897 C123.133,28.162 123.150,28.497 123.150,28.904 C123.150,29.284 123.133,29.606 123.099,29.871 C123.065,30.135 123.014,30.349 122.946,30.512 C122.878,30.674 122.797,30.793 122.702,30.868 C122.607,30.942 122.498,30.980 122.376,30.980 L112.966,30.980 L112.966,37.409 L120.930,37.409 C121.052,37.409 121.164,37.446 121.266,37.521 C121.368,37.595 121.452,37.711 121.521,37.866 C121.588,38.022 121.639,38.233 121.673,38.497 C121.707,38.762 121.724,39.084 121.724,39.463 C121.724,39.857 121.707,40.183 121.673,40.440 C121.639,40.698 121.588,40.905 121.521,41.061 C121.452,41.217 121.368,41.329 121.266,41.396 C121.164,41.464 121.052,41.498 120.930,41.498 L112.966,41.498 L112.966,48.924 L122.457,48.924 C122.580,48.924 122.692,48.961 122.794,49.036 C122.895,49.111 122.980,49.229 123.048,49.392 C123.116,49.555 123.167,49.768 123.201,50.033 C123.235,50.297 123.252,50.626 123.252,51.019 C123.252,51.413 123.235,51.742 123.201,52.006 C123.167,52.271 123.116,52.484 123.048,52.647 ZM104.310,30.664 C104.242,30.834 104.157,30.959 104.056,31.041 C103.954,31.122 103.842,31.163 103.719,31.163 L97.120,31.163 L97.120,52.383 C97.120,52.518 97.076,52.640 96.988,52.749 C96.900,52.858 96.754,52.946 96.550,53.013 C96.346,53.081 96.072,53.135 95.725,53.176 C95.379,53.217 94.948,53.237 94.432,53.237 C93.916,53.237 93.485,53.217 93.139,53.176 C92.792,53.135 92.517,53.081 92.314,53.013 C92.110,52.946 91.964,52.858 91.876,52.749 C91.787,52.640 91.743,52.518 91.743,52.383 L91.743,31.163 L85.144,31.163 C85.009,31.163 84.893,31.122 84.798,31.041 C84.703,30.959 84.622,30.834 84.554,30.664 C84.486,30.495 84.435,30.271 84.401,29.993 C84.367,29.715 84.350,29.379 84.350,28.986 C84.350,28.579 84.367,28.233 84.401,27.948 C84.435,27.663 84.486,27.436 84.554,27.267 C84.622,27.097 84.703,26.975 84.798,26.900 C84.893,26.826 85.009,26.788 85.144,26.788 L103.719,26.788 C103.842,26.788 103.954,26.826 104.056,26.900 C104.157,26.975 104.242,27.097 104.310,27.267 C104.378,27.436 104.429,27.663 104.463,27.948 C104.497,28.233 104.514,28.579 104.514,28.986 C104.514,29.379 104.497,29.715 104.463,29.993 C104.429,30.271 104.378,30.495 104.310,30.664 ZM2.000,2.000 L73.000,2.000 L73.000,73.000 L2.000,73.000 L2.000,2.000 Z" class="cls-1"/>
  <path d="M20.017,29.476 C21.595,28.323 24.105,29.116 25.623,31.247 C27.140,33.378 27.091,36.040 25.512,37.192 C23.934,38.344 21.424,37.551 19.906,35.420 C18.389,33.289 18.438,30.628 20.017,29.476 Z" class="cls-2"/>
  <path d="M70.000,3.000 C58.535,39.780 29.194,67.503 5.000,26.422 C38.222,54.968 26.279,28.212 21.972,10.319 C44.090,56.798 62.981,13.001 70.000,3.000 Z" class="cls-2"/>
  <path d="M56.639,37.767 C43.458,54.602 24.771,53.779 13.306,44.721 C14.660,61.190 22.694,70.571 37.861,69.973 C54.662,68.467 60.701,50.577 56.639,37.767 Z" class="cls-2"/>
</svg>
