<svg xmlns="http://www.w3.org/2000/svg" xmlns:xlink="http://www.w3.org/1999/xlink" preserveAspectRatio="xMidYMid" width="1000" height="1000" viewBox="0 0 1000 1000">
  <defs>
    <style>
      .cls-1 {
        fill: #5777ab;
      }

      .cls-2 {
        fill: #fff;
        fill-rule: evenodd;
      }
    </style>
  </defs>
  <rect x="-35" y="-36" width="1067" height="1057" class="cls-1"/>
  <path d="M238.862,397.405 C262.394,380.413 299.812,392.110 322.436,423.530 C345.060,454.951 344.324,494.198 320.791,511.190 C297.259,528.182 259.842,516.485 237.217,485.064 C214.593,453.643 215.329,414.397 238.862,397.405 Z" class="cls-2"/>
  <path d="M984.000,7.000 C813.079,549.357 375.683,958.149 15.000,352.382 C510.267,773.316 332.220,378.769 268.017,114.932 C597.746,800.299 879.366,154.475 984.000,7.000 Z" class="cls-2"/>
  <path d="M784.817,519.676 C588.325,767.919 309.737,755.777 138.817,622.211 C159.004,865.058 278.783,1003.396 504.883,994.576 C755.353,972.365 845.379,708.557 784.817,519.676 Z" class="cls-2"/>
</svg>
