<svg xmlns="http://www.w3.org/2000/svg" xmlns:xlink="http://www.w3.org/1999/xlink" preserveAspectRatio="xMidYMid" width="400" height="100" viewBox="0 0 400 100">
  <defs>
    <style>
      .cls-1 {
        fill: #fff;
        fill-rule: evenodd;
      }
    </style>
  </defs>
  <path d="M32.251,36.008 C34.169,34.615 37.220,35.574 39.064,38.150 C40.909,40.726 40.849,43.943 38.930,45.337 C37.012,46.730 33.961,45.771 32.117,43.195 C30.272,40.619 30.332,37.401 32.251,36.008 Z" class="cls-1"/>
  <path d="M93.000,4.000 C79.065,48.466 43.406,81.981 14.000,32.317 C54.378,66.827 39.862,34.480 34.628,12.849 C61.510,69.039 84.469,16.091 93.000,4.000 Z" class="cls-1"/>
  <path d="M76.761,46.032 C60.742,66.385 38.029,65.389 24.094,54.439 C25.740,74.349 35.506,85.691 53.939,84.967 C74.359,83.146 81.699,61.518 76.761,46.032 Z" class="cls-1"/>
  <path d="M371.739,79.181 C371.523,79.664 371.235,80.068 370.871,80.390 C370.508,80.712 370.077,80.948 369.580,81.095 C369.082,81.243 368.577,81.317 368.067,81.317 L363.547,81.317 C362.605,81.317 361.792,81.223 361.106,81.035 C360.420,80.847 359.787,80.505 359.209,80.007 C358.630,79.510 358.072,78.838 357.535,77.992 C356.996,77.145 356.391,76.050 355.719,74.706 L342.725,50.319 C341.971,48.868 341.205,47.303 340.425,45.623 C339.644,43.944 338.945,42.312 338.326,40.726 L338.246,40.726 C338.353,42.661 338.434,44.589 338.488,46.510 C338.541,48.432 338.568,50.414 338.568,52.456 L338.568,79.745 C338.568,80.014 338.494,80.256 338.347,80.471 C338.198,80.686 337.943,80.867 337.580,81.015 C337.217,81.163 336.725,81.277 336.107,81.357 C335.488,81.438 334.695,81.478 333.726,81.478 C332.784,81.478 332.004,81.438 331.386,81.357 C330.766,81.277 330.282,81.163 329.933,81.015 C329.583,80.867 329.341,80.686 329.207,80.471 C329.072,80.256 329.005,80.014 329.005,79.745 L329.005,32.866 C329.005,31.603 329.374,30.656 330.114,30.024 C330.854,29.393 331.762,29.077 332.838,29.077 L338.528,29.077 C339.550,29.077 340.411,29.164 341.111,29.339 C341.810,29.514 342.435,29.802 342.987,30.205 C343.538,30.608 344.057,31.166 344.541,31.878 C345.025,32.590 345.523,33.470 346.034,34.518 L356.203,53.584 C356.794,54.740 357.379,55.876 357.958,56.991 C358.536,58.106 359.094,59.221 359.633,60.336 C360.171,61.452 360.695,62.547 361.207,63.621 C361.717,64.697 362.216,65.772 362.700,66.846 L362.740,66.846 C362.659,64.965 362.599,63.004 362.559,60.961 C362.518,58.919 362.498,56.970 362.498,55.116 L362.498,30.649 C362.498,30.380 362.579,30.138 362.740,29.923 C362.902,29.708 363.170,29.520 363.547,29.359 C363.924,29.197 364.421,29.083 365.040,29.016 C365.659,28.949 366.453,28.915 367.421,28.915 C368.335,28.915 369.102,28.949 369.721,29.016 C370.340,29.083 370.817,29.197 371.154,29.359 C371.490,29.520 371.725,29.708 371.860,29.923 C371.994,30.138 372.062,30.380 372.062,30.649 L372.062,77.528 C372.062,78.147 371.954,78.697 371.739,79.181 ZM319.239,80.309 C319.104,80.632 318.937,80.867 318.735,81.015 C318.533,81.163 318.311,81.236 318.069,81.236 L291.839,81.236 C290.952,81.236 290.205,80.974 289.600,80.450 C288.994,79.926 288.692,79.074 288.692,77.891 L288.692,32.422 C288.692,31.240 288.994,30.387 289.600,29.863 C290.205,29.339 290.952,29.077 291.839,29.077 L317.908,29.077 C318.150,29.077 318.365,29.144 318.553,29.278 C318.741,29.413 318.903,29.648 319.037,29.983 C319.172,30.320 319.273,30.749 319.340,31.273 C319.407,31.797 319.441,32.462 319.441,33.269 C319.441,34.021 319.407,34.659 319.340,35.183 C319.273,35.707 319.172,36.131 319.037,36.453 C318.903,36.776 318.741,37.011 318.553,37.158 C318.365,37.307 318.150,37.380 317.908,37.380 L299.264,37.380 L299.264,50.118 L315.043,50.118 C315.285,50.118 315.507,50.192 315.708,50.340 C315.910,50.488 316.078,50.716 316.213,51.025 C316.347,51.334 316.448,51.750 316.515,52.274 C316.582,52.798 316.616,53.437 316.616,54.189 C316.616,54.969 316.582,55.614 316.515,56.124 C316.448,56.635 316.347,57.045 316.213,57.353 C316.078,57.663 315.910,57.884 315.708,58.018 C315.507,58.153 315.285,58.220 315.043,58.220 L299.264,58.220 L299.264,72.933 L318.069,72.933 C318.311,72.933 318.533,73.007 318.735,73.155 C318.937,73.303 319.104,73.537 319.239,73.860 C319.374,74.182 319.474,74.606 319.542,75.130 C319.609,75.654 319.643,76.306 319.643,77.085 C319.643,77.864 319.609,78.516 319.542,79.040 C319.474,79.564 319.374,79.987 319.239,80.309 ZM280.863,80.330 C280.728,80.666 280.561,80.901 280.359,81.035 C280.157,81.170 279.935,81.236 279.693,81.236 L248.903,81.236 C247.827,81.236 247.000,80.928 246.422,80.309 C245.843,79.692 245.554,78.792 245.554,77.609 L245.554,75.835 C245.554,75.298 245.587,74.807 245.655,74.364 C245.722,73.920 245.837,73.471 245.998,73.013 C246.159,72.557 246.395,72.060 246.704,71.522 C247.013,70.985 247.396,70.340 247.854,69.587 L268.112,37.501 L248.016,37.501 C247.693,37.501 247.417,37.427 247.188,37.279 C246.959,37.132 246.771,36.896 246.623,36.574 C246.475,36.252 246.367,35.822 246.301,35.284 C246.233,34.747 246.200,34.102 246.200,33.349 C246.200,32.543 246.233,31.865 246.301,31.314 C246.367,30.763 246.475,30.320 246.623,29.983 C246.771,29.648 246.959,29.413 247.188,29.278 C247.417,29.144 247.693,29.077 248.016,29.077 L276.868,29.077 C277.971,29.077 278.785,29.359 279.310,29.923 C279.834,30.487 280.097,31.280 280.097,32.301 L280.097,34.276 C280.097,35.002 280.062,35.627 279.996,36.151 C279.928,36.675 279.807,37.186 279.632,37.683 C279.457,38.180 279.222,38.690 278.926,39.214 C278.630,39.738 278.254,40.363 277.796,41.089 L257.862,72.731 L279.693,72.731 C280.204,72.731 280.594,73.054 280.863,73.699 C281.132,74.344 281.267,75.459 281.267,77.044 C281.267,77.824 281.233,78.482 281.166,79.019 C281.098,79.557 280.998,79.994 280.863,80.330 ZM236.616,80.390 C236.253,80.712 235.822,80.948 235.324,81.095 C234.826,81.243 234.322,81.317 233.811,81.317 L229.292,81.317 C228.350,81.317 227.536,81.223 226.850,81.035 C226.164,80.847 225.532,80.505 224.954,80.007 C224.375,79.510 223.817,78.838 223.279,77.992 C222.741,77.145 222.135,76.050 221.463,74.706 L208.469,50.319 C207.716,48.868 206.949,47.303 206.169,45.623 C205.389,43.944 204.689,42.312 204.071,40.726 L203.990,40.726 C204.097,42.661 204.178,44.589 204.232,46.510 C204.286,48.432 204.313,50.414 204.313,52.456 L204.313,79.745 C204.313,80.014 204.239,80.256 204.091,80.471 C203.943,80.686 203.687,80.867 203.324,81.015 C202.961,81.163 202.470,81.277 201.851,81.357 C201.232,81.438 200.439,81.478 199.471,81.478 C198.529,81.478 197.749,81.438 197.130,81.357 C196.511,81.277 196.027,81.163 195.677,81.015 C195.327,80.867 195.085,80.686 194.951,80.471 C194.816,80.256 194.749,80.014 194.749,79.745 L194.749,32.866 C194.749,31.603 195.119,30.656 195.859,30.024 C196.599,29.393 197.506,29.077 198.583,29.077 L204.273,29.077 C205.295,29.077 206.155,29.164 206.855,29.339 C207.554,29.514 208.180,29.802 208.732,30.205 C209.283,30.608 209.801,31.166 210.285,31.878 C210.769,32.590 211.267,33.470 211.778,34.518 L221.947,53.584 C222.539,54.740 223.124,55.876 223.703,56.991 C224.281,58.106 224.839,59.221 225.377,60.336 C225.915,61.452 226.440,62.547 226.951,63.621 C227.462,64.697 227.960,65.772 228.444,66.846 L228.485,66.846 C228.404,64.965 228.343,63.004 228.303,60.961 C228.263,58.919 228.242,56.970 228.242,55.116 L228.242,30.649 C228.242,30.380 228.323,30.138 228.485,29.923 C228.646,29.708 228.915,29.520 229.292,29.359 C229.668,29.197 230.166,29.083 230.785,29.016 C231.403,28.949 232.197,28.915 233.166,28.915 C234.080,28.915 234.847,28.949 235.466,29.016 C236.084,29.083 236.562,29.197 236.898,29.359 C237.234,29.520 237.470,29.708 237.604,29.923 C237.739,30.138 237.806,30.380 237.806,30.649 L237.806,77.528 C237.806,78.147 237.698,78.697 237.483,79.181 C237.268,79.664 236.979,80.068 236.616,80.390 ZM184.984,80.309 C184.849,80.632 184.681,80.867 184.479,81.015 C184.278,81.163 184.056,81.236 183.813,81.236 L157.584,81.236 C156.696,81.236 155.949,80.974 155.344,80.450 C154.739,79.926 154.436,79.074 154.436,77.891 L154.436,32.422 C154.436,31.240 154.739,30.387 155.344,29.863 C155.949,29.339 156.696,29.077 157.584,29.077 L183.652,29.077 C183.894,29.077 184.109,29.144 184.298,29.278 C184.486,29.413 184.647,29.648 184.782,29.983 C184.916,30.320 185.017,30.749 185.085,31.273 C185.151,31.797 185.185,32.462 185.185,33.269 C185.185,34.021 185.151,34.659 185.085,35.183 C185.017,35.707 184.916,36.131 184.782,36.453 C184.647,36.776 184.486,37.011 184.298,37.158 C184.109,37.307 183.894,37.380 183.652,37.380 L165.009,37.380 L165.009,50.118 L180.787,50.118 C181.029,50.118 181.251,50.192 181.453,50.340 C181.655,50.488 181.822,50.716 181.957,51.025 C182.092,51.334 182.192,51.750 182.260,52.274 C182.327,52.798 182.361,53.437 182.361,54.189 C182.361,54.969 182.327,55.614 182.260,56.124 C182.192,56.635 182.092,57.045 181.957,57.353 C181.822,57.663 181.655,57.884 181.453,58.018 C181.251,58.153 181.029,58.220 180.787,58.220 L165.009,58.220 L165.009,72.933 L183.813,72.933 C184.056,72.933 184.278,73.007 184.479,73.155 C184.681,73.303 184.849,73.537 184.984,73.860 C185.118,74.182 185.219,74.606 185.286,75.130 C185.353,75.654 185.387,76.306 185.387,77.085 C185.387,77.864 185.353,78.516 185.286,79.040 C185.219,79.564 185.118,79.987 184.984,80.309 ZM147.859,36.755 C147.724,37.092 147.556,37.340 147.354,37.501 C147.152,37.662 146.931,37.743 146.688,37.743 L133.614,37.743 L133.614,79.785 C133.614,80.054 133.526,80.296 133.352,80.511 C133.176,80.726 132.888,80.901 132.484,81.035 C132.080,81.170 131.536,81.277 130.850,81.357 C130.164,81.438 129.309,81.478 128.287,81.478 C127.265,81.478 126.411,81.438 125.725,81.357 C125.039,81.277 124.494,81.170 124.091,81.035 C123.687,80.901 123.398,80.726 123.223,80.511 C123.048,80.296 122.961,80.054 122.961,79.785 L122.961,37.743 L109.886,37.743 C109.617,37.743 109.388,37.662 109.200,37.501 C109.012,37.340 108.850,37.092 108.716,36.755 C108.581,36.420 108.480,35.976 108.413,35.425 C108.346,34.875 108.312,34.210 108.312,33.430 C108.312,32.624 108.346,31.938 108.413,31.374 C108.480,30.810 108.581,30.360 108.716,30.024 C108.850,29.688 109.012,29.446 109.200,29.298 C109.388,29.151 109.617,29.077 109.886,29.077 L146.688,29.077 C146.931,29.077 147.152,29.151 147.354,29.298 C147.556,29.446 147.724,29.688 147.859,30.024 C147.993,30.360 148.094,30.810 148.161,31.374 C148.228,31.938 148.262,32.624 148.262,33.430 C148.262,34.210 148.228,34.875 148.161,35.425 C148.094,35.976 147.993,36.420 147.859,36.755 Z" class="cls-1"/>
</svg>
