<svg xmlns="http://www.w3.org/2000/svg" xmlns:xlink="http://www.w3.org/1999/xlink" preserveAspectRatio="xMidYMid" width="350" height="75" viewBox="0 0 350 75">
  <defs>
    <style>
      .cls-1 {
        fill: #fff;
        fill-rule: evenodd;
      }
    </style>
  </defs>
  <path d="M17.710,30.056 C19.361,28.835 21.987,29.676 23.574,31.934 C25.162,34.192 25.110,37.012 23.459,38.233 C21.808,39.454 19.182,38.614 17.594,36.356 C16.007,34.098 16.058,31.277 17.710,30.056 Z" class="cls-1"/>
  <path d="M70.000,2.000 C58.006,40.976 27.311,70.354 2.000,26.821 C36.756,57.071 24.261,28.717 19.756,9.756 C42.894,59.010 62.657,12.598 70.000,2.000 Z" class="cls-1"/>
  <path d="M56.022,38.843 C42.233,56.683 22.683,55.810 10.689,46.212 C12.106,63.664 20.511,73.605 36.378,72.971 C53.955,71.375 60.272,52.417 56.022,38.843 Z" class="cls-1"/>
  <path d="M201.176,56.115 L188.595,37.082 L188.529,37.082 L188.529,56.115 L184.658,56.115 L184.658,30.182 L192.833,30.182 L201.476,43.282 L201.576,43.282 L201.576,31.715 C201.576,31.160 201.765,30.698 202.144,30.332 C202.522,29.965 202.989,29.782 203.545,29.782 C204.079,29.782 204.524,29.971 204.880,30.348 C205.236,30.726 205.414,31.182 205.414,31.715 L205.414,56.115 L201.176,56.115 ZM180.787,52.582 C181.276,52.582 181.693,52.754 182.039,53.098 C182.383,53.443 182.567,53.860 182.589,54.348 C182.611,54.837 182.439,55.254 182.072,55.598 C181.705,55.943 181.276,56.115 180.787,56.115 L165.904,56.115 L165.871,32.582 C165.871,31.937 166.110,31.376 166.588,30.898 C167.067,30.421 167.628,30.182 168.274,30.182 L180.620,30.182 C181.110,30.182 181.532,30.354 181.888,30.698 C182.244,31.043 182.422,31.460 182.422,31.948 C182.422,32.437 182.250,32.854 181.905,33.198 C181.560,33.543 181.143,33.715 180.654,33.715 L173.179,33.715 L173.179,41.048 L181.922,41.048 L181.922,44.548 L173.212,44.548 L173.212,52.582 L180.787,52.582 ZM161.867,56.115 L141.044,56.115 L153.891,33.715 L141.912,33.715 L141.912,30.182 L160.098,30.182 C160.743,30.182 161.294,30.410 161.750,30.865 C162.206,31.321 162.434,31.871 162.434,32.515 C162.434,32.782 162.356,33.115 162.200,33.515 L151.389,52.582 L161.867,52.582 C162.356,52.582 162.773,52.754 163.118,53.098 C163.463,53.443 163.635,53.860 163.635,54.348 C163.635,54.837 163.463,55.254 163.118,55.598 C162.773,55.943 162.356,56.115 161.867,56.115 ZM122.057,37.082 L121.990,37.082 L121.990,56.115 L118.119,56.115 L118.119,30.182 L126.295,30.182 L134.938,43.282 L135.038,43.282 L135.038,31.715 C135.038,31.160 135.226,30.698 135.605,30.332 C135.983,29.965 136.450,29.782 137.006,29.782 C137.540,29.782 137.985,29.971 138.341,30.348 C138.697,30.726 138.875,31.182 138.875,31.715 L138.875,56.115 L134.637,56.115 L122.057,37.082 ZM114.249,52.582 C114.738,52.582 115.155,52.754 115.500,53.098 C115.845,53.443 116.028,53.860 116.051,54.348 C116.072,54.837 115.900,55.254 115.533,55.598 C115.166,55.943 114.738,56.115 114.249,56.115 L99.366,56.115 L99.332,32.582 C99.332,31.937 99.571,31.376 100.050,30.898 C100.528,30.421 101.089,30.182 101.735,30.182 L114.082,30.182 C114.571,30.182 114.994,30.354 115.350,30.698 C115.705,31.043 115.884,31.460 115.884,31.948 C115.884,32.437 115.711,32.854 115.366,33.198 C115.021,33.543 114.604,33.715 114.115,33.715 L106.640,33.715 L106.640,41.048 L115.383,41.048 L115.383,44.548 L106.674,44.548 L106.674,52.582 L114.249,52.582 ZM90.156,56.115 L82.848,56.115 L82.848,33.715 L77.575,33.715 C77.085,33.715 76.668,33.543 76.324,33.198 C75.979,32.854 75.806,32.437 75.806,31.948 C75.806,31.460 75.979,31.043 76.324,30.698 C76.668,30.354 77.085,30.182 77.575,30.182 L97.163,30.182 L97.163,33.715 L90.156,33.715 L90.156,56.115 Z" class="cls-1"/>
</svg>
