<svg xmlns="http://www.w3.org/2000/svg" xmlns:xlink="http://www.w3.org/1999/xlink" preserveAspectRatio="xMidYMid" width="250" height="150" viewBox="0 0 250 150">
  <defs>
    <style>
      .cls-1 {
        fill: #fff;
        fill-rule: evenodd;
      }
    </style>
  </defs>
  <path d="M18.479,53.266 C20.106,52.079 22.693,52.896 24.257,55.090 C25.821,57.285 25.771,60.026 24.143,61.213 C22.516,62.399 19.929,61.582 18.365,59.388 C16.801,57.194 16.851,54.453 18.479,53.266 Z" class="cls-1"/>
  <path d="M70.000,26.000 C58.182,63.878 27.939,92.428 3.000,50.121 C37.244,79.519 24.934,51.964 20.494,33.538 C43.293,81.404 62.765,36.300 70.000,26.000 Z" class="cls-1"/>
  <path d="M56.228,61.805 C42.642,79.143 23.379,78.295 11.561,68.966 C12.957,85.927 21.239,95.588 36.872,94.972 C54.191,93.421 60.415,74.997 56.228,61.805 Z" class="cls-1"/>
  <path d="M245.950,91.204 C245.805,91.529 245.611,91.801 245.366,92.018 C245.121,92.235 244.831,92.394 244.496,92.493 C244.161,92.592 243.821,92.642 243.477,92.642 L240.433,92.642 C239.798,92.642 239.251,92.579 238.789,92.452 C238.327,92.326 237.901,92.095 237.511,91.760 C237.121,91.425 236.745,90.973 236.383,90.403 C236.021,89.833 235.613,89.095 235.160,88.190 L226.408,71.765 C225.901,70.787 225.385,69.733 224.859,68.602 C224.334,67.471 223.863,66.371 223.446,65.303 L223.392,65.303 C223.464,66.606 223.518,67.905 223.555,69.199 C223.591,70.493 223.609,71.828 223.609,73.204 L223.609,91.584 C223.609,91.765 223.559,91.928 223.460,92.072 C223.360,92.217 223.188,92.340 222.943,92.439 C222.699,92.539 222.368,92.615 221.951,92.670 C221.534,92.724 221.000,92.751 220.348,92.751 C219.713,92.751 219.188,92.724 218.771,92.670 C218.354,92.615 218.028,92.539 217.793,92.439 C217.557,92.340 217.394,92.217 217.303,92.072 C217.213,91.928 217.168,91.765 217.168,91.584 L217.168,60.009 C217.168,59.158 217.416,58.520 217.915,58.095 C218.413,57.670 219.025,57.457 219.750,57.457 L223.582,57.457 C224.270,57.457 224.850,57.516 225.321,57.633 C225.792,57.751 226.214,57.946 226.585,58.217 C226.956,58.489 227.305,58.864 227.632,59.344 C227.958,59.824 228.293,60.416 228.637,61.122 L235.486,73.964 C235.885,74.742 236.279,75.507 236.669,76.258 C237.058,77.009 237.434,77.760 237.797,78.511 C238.159,79.263 238.512,80.000 238.857,80.724 C239.201,81.448 239.536,82.172 239.862,82.896 L239.889,82.896 C239.835,81.629 239.794,80.308 239.767,78.932 C239.740,77.557 239.726,76.244 239.726,74.995 L239.726,58.516 C239.726,58.335 239.781,58.172 239.889,58.027 C239.998,57.882 240.179,57.756 240.433,57.647 C240.686,57.538 241.022,57.462 241.439,57.416 C241.855,57.371 242.390,57.348 243.042,57.348 C243.658,57.348 244.174,57.371 244.591,57.416 C245.008,57.462 245.329,57.538 245.556,57.647 C245.783,57.756 245.941,57.882 246.032,58.027 C246.122,58.172 246.168,58.335 246.168,58.516 L246.168,90.090 C246.168,90.507 246.095,90.878 245.950,91.204 ZM210.590,91.964 C210.499,92.181 210.386,92.340 210.250,92.439 C210.115,92.539 209.965,92.588 209.802,92.588 L192.136,92.588 C191.538,92.588 191.035,92.412 190.627,92.059 C190.219,91.706 190.016,91.131 190.016,90.335 L190.016,59.710 C190.016,58.914 190.219,58.339 190.627,57.986 C191.035,57.633 191.538,57.457 192.136,57.457 L209.693,57.457 C209.856,57.457 210.001,57.502 210.128,57.593 C210.255,57.683 210.363,57.842 210.454,58.068 C210.545,58.294 210.613,58.584 210.658,58.937 C210.703,59.289 210.726,59.737 210.726,60.280 C210.726,60.787 210.703,61.217 210.658,61.570 C210.613,61.923 210.545,62.208 210.454,62.425 C210.363,62.642 210.255,62.801 210.128,62.900 C210.001,63.000 209.856,63.050 209.693,63.050 L197.137,63.050 L197.137,71.629 L207.764,71.629 C207.927,71.629 208.076,71.679 208.212,71.778 C208.348,71.878 208.461,72.032 208.552,72.240 C208.642,72.448 208.710,72.728 208.756,73.081 C208.801,73.434 208.824,73.864 208.824,74.371 C208.824,74.896 208.801,75.331 208.756,75.674 C208.710,76.018 208.642,76.294 208.552,76.502 C208.461,76.710 208.348,76.860 208.212,76.950 C208.076,77.041 207.927,77.086 207.764,77.086 L197.137,77.086 L197.137,86.995 L209.802,86.995 C209.965,86.995 210.115,87.045 210.250,87.145 C210.386,87.244 210.499,87.403 210.590,87.620 C210.681,87.837 210.749,88.122 210.794,88.475 C210.839,88.828 210.862,89.267 210.862,89.792 C210.862,90.317 210.839,90.756 210.794,91.109 C210.749,91.461 210.681,91.747 210.590,91.964 ZM184.743,91.977 C184.652,92.204 184.539,92.362 184.403,92.452 C184.267,92.543 184.118,92.588 183.955,92.588 L163.217,92.588 C162.492,92.588 161.935,92.380 161.545,91.964 C161.156,91.548 160.961,90.941 160.961,90.145 L160.961,88.950 C160.961,88.588 160.984,88.258 161.029,87.959 C161.074,87.661 161.151,87.358 161.260,87.050 C161.369,86.742 161.527,86.407 161.736,86.045 C161.944,85.683 162.202,85.249 162.510,84.742 L176.154,63.131 L162.619,63.131 C162.402,63.131 162.216,63.081 162.062,62.982 C161.908,62.883 161.781,62.724 161.681,62.507 C161.581,62.289 161.509,62.000 161.464,61.638 C161.418,61.276 161.396,60.842 161.396,60.335 C161.396,59.792 161.418,59.335 161.464,58.964 C161.509,58.593 161.581,58.294 161.681,58.068 C161.781,57.842 161.908,57.683 162.062,57.593 C162.216,57.502 162.402,57.457 162.619,57.457 L182.052,57.457 C182.795,57.457 183.343,57.647 183.696,58.027 C184.050,58.407 184.226,58.941 184.226,59.629 L184.226,60.959 C184.226,61.448 184.203,61.869 184.158,62.222 C184.113,62.575 184.031,62.919 183.914,63.253 C183.796,63.588 183.637,63.932 183.438,64.285 C183.239,64.638 182.985,65.059 182.677,65.547 L169.251,86.860 L183.955,86.860 C184.299,86.860 184.561,87.077 184.743,87.511 C184.924,87.946 185.015,88.697 185.015,89.765 C185.015,90.290 184.992,90.733 184.947,91.095 C184.901,91.457 184.833,91.751 184.743,91.977 ZM154.941,92.018 C154.696,92.235 154.406,92.394 154.071,92.493 C153.736,92.592 153.396,92.642 153.052,92.642 L150.008,92.642 C149.373,92.642 148.826,92.579 148.363,92.452 C147.901,92.326 147.475,92.095 147.086,91.760 C146.696,91.425 146.320,90.973 145.958,90.403 C145.595,89.833 145.188,89.095 144.735,88.190 L135.983,71.765 C135.476,70.787 134.959,69.733 134.434,68.602 C133.908,67.471 133.437,66.371 133.021,65.303 L132.966,65.303 C133.039,66.606 133.093,67.905 133.130,69.199 C133.166,70.493 133.184,71.828 133.184,73.204 L133.184,91.584 C133.184,91.765 133.134,91.928 133.034,92.072 C132.935,92.217 132.763,92.340 132.518,92.439 C132.273,92.539 131.943,92.615 131.526,92.670 C131.109,92.724 130.575,92.751 129.922,92.751 C129.288,92.751 128.763,92.724 128.346,92.670 C127.929,92.615 127.603,92.539 127.368,92.439 C127.132,92.340 126.969,92.217 126.878,92.072 C126.787,91.928 126.742,91.765 126.742,91.584 L126.742,60.009 C126.742,59.158 126.991,58.520 127.490,58.095 C127.988,57.670 128.600,57.457 129.324,57.457 L133.157,57.457 C133.845,57.457 134.425,57.516 134.896,57.633 C135.367,57.751 135.788,57.946 136.160,58.217 C136.531,58.489 136.880,58.864 137.206,59.344 C137.533,59.824 137.868,60.416 138.212,61.122 L145.061,73.964 C145.460,74.742 145.854,75.507 146.244,76.258 C146.633,77.009 147.009,77.760 147.371,78.511 C147.734,79.263 148.087,80.000 148.431,80.724 C148.775,81.448 149.111,82.172 149.437,82.896 L149.464,82.896 C149.410,81.629 149.369,80.308 149.342,78.932 C149.315,77.557 149.301,76.244 149.301,74.995 L149.301,58.516 C149.301,58.335 149.356,58.172 149.464,58.027 C149.573,57.882 149.754,57.756 150.008,57.647 C150.261,57.538 150.596,57.462 151.013,57.416 C151.430,57.371 151.965,57.348 152.617,57.348 C153.233,57.348 153.749,57.371 154.166,57.416 C154.583,57.462 154.904,57.538 155.131,57.647 C155.357,57.756 155.516,57.882 155.607,58.027 C155.697,58.172 155.743,58.335 155.743,58.516 L155.743,90.090 C155.743,90.507 155.670,90.878 155.525,91.204 C155.380,91.529 155.185,91.801 154.941,92.018 ZM120.165,91.964 C120.074,92.181 119.961,92.340 119.825,92.439 C119.689,92.539 119.540,92.588 119.377,92.588 L101.710,92.588 C101.113,92.588 100.610,92.412 100.202,92.059 C99.794,91.706 99.590,91.131 99.590,90.335 L99.590,59.710 C99.590,58.914 99.794,58.339 100.202,57.986 C100.610,57.633 101.113,57.457 101.710,57.457 L119.268,57.457 C119.431,57.457 119.576,57.502 119.703,57.593 C119.830,57.683 119.938,57.842 120.029,58.068 C120.120,58.294 120.188,58.584 120.233,58.937 C120.278,59.289 120.301,59.737 120.301,60.280 C120.301,60.787 120.278,61.217 120.233,61.570 C120.188,61.923 120.120,62.208 120.029,62.425 C119.938,62.642 119.830,62.801 119.703,62.900 C119.576,63.000 119.431,63.050 119.268,63.050 L106.711,63.050 L106.711,71.629 L117.338,71.629 C117.502,71.629 117.651,71.679 117.787,71.778 C117.923,71.878 118.036,72.032 118.127,72.240 C118.217,72.448 118.285,72.728 118.331,73.081 C118.376,73.434 118.398,73.864 118.398,74.371 C118.398,74.896 118.376,75.331 118.331,75.674 C118.285,76.018 118.217,76.294 118.127,76.502 C118.036,76.710 117.923,76.860 117.787,76.950 C117.651,77.041 117.502,77.086 117.338,77.086 L106.711,77.086 L106.711,86.995 L119.377,86.995 C119.540,86.995 119.689,87.045 119.825,87.145 C119.961,87.244 120.074,87.403 120.165,87.620 C120.256,87.837 120.324,88.122 120.369,88.475 C120.414,88.828 120.437,89.267 120.437,89.792 C120.437,90.317 120.414,90.756 120.369,91.109 C120.324,91.461 120.256,91.747 120.165,91.964 ZM95.160,62.629 C95.069,62.855 94.956,63.023 94.821,63.131 C94.685,63.240 94.535,63.294 94.372,63.294 L85.566,63.294 L85.566,91.611 C85.566,91.792 85.507,91.955 85.389,92.100 C85.271,92.245 85.077,92.362 84.805,92.452 C84.533,92.543 84.166,92.615 83.704,92.670 C83.242,92.724 82.667,92.751 81.978,92.751 C81.290,92.751 80.715,92.724 80.252,92.670 C79.790,92.615 79.424,92.543 79.152,92.452 C78.880,92.362 78.685,92.245 78.567,92.100 C78.449,91.955 78.391,91.792 78.391,91.611 L78.391,63.294 L69.585,63.294 C69.403,63.294 69.249,63.240 69.123,63.131 C68.996,63.023 68.887,62.855 68.796,62.629 C68.706,62.403 68.638,62.104 68.593,61.733 C68.547,61.362 68.525,60.914 68.525,60.389 C68.525,59.846 68.547,59.385 68.593,59.004 C68.638,58.624 68.706,58.321 68.796,58.095 C68.887,57.869 68.996,57.706 69.123,57.606 C69.249,57.507 69.403,57.457 69.585,57.457 L94.372,57.457 C94.535,57.457 94.685,57.507 94.821,57.606 C94.956,57.706 95.069,57.869 95.160,58.095 C95.251,58.321 95.319,58.624 95.364,59.004 C95.409,59.385 95.432,59.846 95.432,60.389 C95.432,60.914 95.409,61.362 95.364,61.733 C95.319,62.104 95.251,62.403 95.160,62.629 Z" class="cls-1"/>
</svg>
